# xmcd
#
# Track frame offsets: 
#        150
#        20637
#        39412
#        59537
#        74725
#        90612
#        106800
#        121300
#        142000
#        158925
#
# Disc length: 2330 seconds
#
# Revision: 2
# Processed by: cddbd v1.5.2PL0 Copyright (c) Steve Scherf et al.
# Submitted via: ExactAudioCopy v1.0b3
#
DISCID=8e09180a
DTITLE=Thanh Ha - In Japan
DYEAR=1900
DGENRE=
TTITLE0=Lan cuoi trong mua
TTITLE1=Tinh den roi di
TTITLE2=Tinh da xa
TTITLE3=Mong cho
TTITLE4=Tiec nuoi
TTITLE5=Chia khoa tinh yeu
TTITLE6=Dem than tien
TTITLE7=Em van cho anh
TTITLE8=Con tau biet ly
TTITLE9=Tinh
EXTD=
EXTT0=
EXTT1=
EXTT2=
EXTT3=
EXTT4=
EXTT5=
EXTT6=
EXTT7=
EXTT8=
EXTT9=
PLAYORDER=
